<svg width="8" height="12" viewBox="0 0 8 12" fill="none" xmlns="http://www.w3.org/2000/svg">
<path fill-rule="evenodd" clip-rule="evenodd" d="M6.85672 0.351784C7.08197 0.577099 7.2085 0.882651 7.2085 1.20125C7.2085 1.51984 7.08197 1.82539 6.85672 2.05071L2.90017 6.00726L6.85672 9.96381C7.07558 10.1904 7.19669 10.4939 7.19395 10.8089C7.19121 11.124 7.06485 11.4253 6.84209 11.6481C6.61932 11.8709 6.31796 11.9972 6.00293 12C5.6879 12.0027 5.3844 11.8816 5.1578 11.6627L0.351784 6.85672C0.126537 6.63141 0 6.32586 0 6.00726C0 5.68866 0.126537 5.38311 0.351784 5.1578L5.1578 0.351784C5.38311 0.126537 5.68866 0 6.00726 0C6.32585 0 6.63141 0.126537 6.85672 0.351784Z" fill="white"/>
</svg>
