<svg width="8" height="12" viewBox="0 0 8 12" fill="none" xmlns="http://www.w3.org/2000/svg">
<path fill-rule="evenodd" clip-rule="evenodd" d="M0.351784 11.6482C0.126537 11.4229 0 11.1174 0 10.7988C0 10.4802 0.126537 10.1746 0.351784 9.9493L4.30833 5.99275L0.351784 2.0362C0.132921 1.8096 0.0118152 1.50609 0.0145528 1.19106C0.0172903 0.876033 0.143651 0.574681 0.36642 0.351913C0.589188 0.129144 0.890541 0.00278295 1.20557 4.54198e-05C1.5206 -0.00269211 1.8241 0.118413 2.05071 0.337277L6.85672 5.14329C7.08197 5.36861 7.2085 5.67416 7.2085 5.99275C7.2085 6.31135 7.08197 6.6169 6.85672 6.84222L2.05071 11.6482C1.82539 11.8735 1.51984 12 1.20125 12C0.882651 12 0.577099 11.8735 0.351784 11.6482Z" fill="white"/>
</svg>
